# Blender 4.2.2 LTS
# www.blender.org
mtllib door.mtl
o Door
v -0.189134 0.011419 -0.704684
v -0.189134 0.441737 -0.704684
v 0.189134 0.011419 -0.704684
v 0.189134 0.441737 -0.704684
v 0.000000 0.011419 -0.704684
v 0.000000 0.441737 -0.704684
v -0.189134 0.226578 -0.704684
v 0.189134 0.226578 -0.704684
v 0.000000 0.226578 -0.704684
v -0.189134 0.226578 -0.653912
v -0.189134 0.441737 -0.653912
v 0.189134 0.226578 -0.653912
v 0.189134 0.011419 -0.653912
v 0.000000 0.011419 -0.653912
v 0.000000 0.441737 -0.653912
v -0.189134 0.011419 -0.653912
v 0.189134 0.441737 -0.653912
v -0.189134 0.441737 -0.653912
v 0.000000 0.441737 -0.653912
v 0.189134 0.441737 -0.653912
v 0.189134 0.226578 -0.653912
v 0.189134 0.011419 -0.653912
v 0.000000 0.226578 -0.653912
v 0.000000 0.011419 -0.653912
v -0.189134 0.226578 -0.653912
v -0.189134 0.011419 -0.653912
v -0.166849 0.039985 -0.669203
v -0.164024 0.036770 -0.669203
v -0.164024 0.039985 -0.669582
v -0.166849 0.198012 -0.669203
v -0.164024 0.198012 -0.669582
v -0.164024 0.201226 -0.669203
v -0.025111 0.036770 -0.669203
v -0.022285 0.039985 -0.669203
v -0.025111 0.039985 -0.669582
v -0.025111 0.201226 -0.669203
v -0.025111 0.198012 -0.669582
v -0.022285 0.198012 -0.669203
v 0.163626 0.040437 -0.669582
v 0.163626 0.037222 -0.669203
v 0.166452 0.040437 -0.669203
v 0.166452 0.197560 -0.669203
v 0.163626 0.200774 -0.669203
v 0.163626 0.197560 -0.669582
v 0.022682 0.197560 -0.669203
v 0.025508 0.197560 -0.669582
v 0.025508 0.200774 -0.669203
v 0.025508 0.040437 -0.669582
v 0.022682 0.040437 -0.669203
v 0.025508 0.037222 -0.669203
v 0.154962 0.406077 -0.669203
v 0.154962 0.402863 -0.669582
v 0.157788 0.402863 -0.669203
v 0.157788 0.265452 -0.669203
v 0.154962 0.265452 -0.669582
v 0.154962 0.262237 -0.669203
v 0.034172 0.406077 -0.669203
v 0.031346 0.402863 -0.669203
v 0.034172 0.402863 -0.669582
v 0.031346 0.265452 -0.669203
v 0.034172 0.262237 -0.669203
v 0.034172 0.265452 -0.669582
v -0.163360 0.409201 -0.669203
v -0.160534 0.409201 -0.669582
v -0.160534 0.412416 -0.669203
v -0.160534 0.255899 -0.669203
v -0.160534 0.259113 -0.669582
v -0.163360 0.259113 -0.669203
v -0.025774 0.259113 -0.669203
v -0.028600 0.259113 -0.669582
v -0.028600 0.255899 -0.669203
v -0.025774 0.409201 -0.669203
v -0.028600 0.412416 -0.669203
v -0.028600 0.409201 -0.669582
v -0.166849 0.039985 -0.654291
v -0.169675 0.038102 -0.653912
v -0.165679 0.033556 -0.653912
v -0.164024 0.036770 -0.654291
v -0.173793 0.033417 -0.653912
v -0.179445 0.022442 -0.653912
v -0.169797 0.028871 -0.653912
v -0.160534 0.412416 -0.654291
v -0.162190 0.415630 -0.653912
v -0.166186 0.411084 -0.653912
v -0.163360 0.409201 -0.654291
v -0.166308 0.420315 -0.653912
v -0.175956 0.426744 -0.653912
v -0.170304 0.415769 -0.653912
v 0.163626 0.037222 -0.654291
v 0.165282 0.034008 -0.653912
v 0.169278 0.038554 -0.653912
v 0.166452 0.040437 -0.654291
v 0.169400 0.029323 -0.653912
v 0.179048 0.022894 -0.653912
v 0.173396 0.033869 -0.653912
v 0.157788 0.402863 -0.654291
v 0.160614 0.404746 -0.653912
v 0.156618 0.409292 -0.653912
v 0.154962 0.406077 -0.654291
v 0.164732 0.409431 -0.653912
v 0.170384 0.420406 -0.653912
v 0.160736 0.413977 -0.653912
v 0.010087 0.022894 -0.653912
v 0.019734 0.029323 -0.653912
v 0.015738 0.033869 -0.653912
v 0.025508 0.037222 -0.654291
v 0.022682 0.040437 -0.654291
v 0.019857 0.038554 -0.653912
v 0.023853 0.034008 -0.653912
v -0.022826 0.420315 -0.653912
v -0.018830 0.415769 -0.653912
v -0.013179 0.426744 -0.653912
v -0.028600 0.412416 -0.654291
v -0.025774 0.409201 -0.654291
v -0.022949 0.411084 -0.653912
v -0.026945 0.415630 -0.653912
v -0.163360 0.259113 -0.654291
v -0.166186 0.257230 -0.653912
v -0.162190 0.252684 -0.653912
v -0.160534 0.255899 -0.654291
v -0.170304 0.252545 -0.653912
v -0.175956 0.241570 -0.653912
v -0.166308 0.247999 -0.653912
v 0.164732 0.258884 -0.653912
v 0.160736 0.254338 -0.653912
v 0.170384 0.247909 -0.653912
v 0.157788 0.265452 -0.654291
v 0.154962 0.262237 -0.654291
v 0.156618 0.259023 -0.653912
v 0.160614 0.263569 -0.653912
v -0.028600 0.255899 -0.654291
v -0.026945 0.252684 -0.653912
v -0.022949 0.257230 -0.653912
v -0.025774 0.259113 -0.654291
v -0.022826 0.247999 -0.653912
v -0.013179 0.241570 -0.653912
v -0.018830 0.252545 -0.653912
v 0.034172 0.406077 -0.654291
v 0.032517 0.409292 -0.653912
v 0.028521 0.404746 -0.653912
v 0.031346 0.402863 -0.654291
v 0.028398 0.413977 -0.653912
v 0.018751 0.420406 -0.653912
v 0.024402 0.409431 -0.653912
v 0.018751 0.247909 -0.653912
v 0.028398 0.254338 -0.653912
v 0.024402 0.258884 -0.653912
v 0.034172 0.262237 -0.654291
v 0.031346 0.265452 -0.654291
v 0.028521 0.263569 -0.653912
v 0.032517 0.259023 -0.653912
v -0.179445 0.215555 -0.653912
v -0.173793 0.204580 -0.653912
v -0.169797 0.209126 -0.653912
v -0.166849 0.198012 -0.654291
v -0.164024 0.201226 -0.654291
v -0.165679 0.204441 -0.653912
v -0.169675 0.199895 -0.653912
v 0.025508 0.200774 -0.654291
v 0.023853 0.203989 -0.653912
v 0.019857 0.199443 -0.653912
v 0.022682 0.197560 -0.654291
v 0.019734 0.208674 -0.653912
v 0.010087 0.215103 -0.653912
v 0.015738 0.204128 -0.653912
v 0.166452 0.197560 -0.654291
v 0.169278 0.199443 -0.653912
v 0.165282 0.203989 -0.653912
v 0.163626 0.200774 -0.654291
v 0.173396 0.204128 -0.653912
v 0.179048 0.215103 -0.653912
v 0.169400 0.208674 -0.653912
v -0.019337 0.209126 -0.653912
v -0.015341 0.204580 -0.653912
v -0.009690 0.215555 -0.653912
v -0.025111 0.201226 -0.654291
v -0.022285 0.198012 -0.654291
v -0.019459 0.199895 -0.653912
v -0.023456 0.204441 -0.653912
v -0.025111 0.036770 -0.654291
v -0.023456 0.033556 -0.653912
v -0.019459 0.038102 -0.653912
v -0.022285 0.039985 -0.654291
v -0.019337 0.028871 -0.653912
v -0.009690 0.022442 -0.653912
v -0.015341 0.033417 -0.653912
vn -1.0000 -0.0000 -0.0000
vn -0.0000 -0.0000 -1.0000
vn 1.0000 -0.0000 -0.0000
vn -0.0000 -0.0000 1.0000
vn -0.0000 -1.0000 -0.0000
vn -0.0000 1.0000 -0.0000
vn 0.1321 0.1161 0.9844
vn 0.1321 -0.1161 0.9844
vn -0.1321 0.1161 0.9844
vn -0.1321 -0.1161 0.9844
vn 0.0841 0.0739 0.9937
vn 0.0841 -0.0739 0.9937
vn -0.0841 0.0739 0.9937
vn -0.0841 -0.0739 0.9937
vn 0.7511 0.6602 -0.0000
vn 0.1330 -0.0000 0.9911
vn -0.7511 -0.6602 -0.0000
vn 0.7511 -0.6602 -0.0000
vn -0.7511 0.6602 -0.0000
vn -0.0000 0.1172 0.9931
vn -0.1330 -0.0000 0.9911
vn -0.0000 -0.1172 0.9931
vt 0.500000 0.000000
vt 0.625000 0.000000
vt 0.625000 0.250000
vt 0.500000 0.250000
vt 0.500000 0.375000
vt 0.625000 0.375000
vt 0.625000 0.500000
vt 0.500000 0.500000
vt 0.625000 0.750000
vt 0.500000 0.750000
vt 0.484236 0.763123
vt 0.390764 0.763123
vt 0.388043 0.760401
vt 0.486957 0.760401
vt 0.250000 0.500000
vt 0.375000 0.500000
vt 0.375000 0.750000
vt 0.250000 0.750000
vt 0.750000 0.500000
vt 0.875000 0.500000
vt 0.875000 0.750000
vt 0.750000 0.750000
vt 0.125000 0.500000
vt 0.125000 0.750000
vt 0.486957 0.864598
vt 0.388043 0.864599
vt 0.390764 0.861877
vt 0.484236 0.861877
vt 0.375000 0.250000
vt 0.375000 0.375000
vt 0.603510 0.768849
vt 0.521490 0.768849
vt 0.518769 0.766127
vt 0.606231 0.766128
vt 0.517808 0.984833
vt 0.607192 0.984833
vt 0.609914 0.987555
vt 0.515086 0.987555
vt 0.375000 0.000000
vt 0.000000 0.000000
vt 0.375000 0.875000
vt 0.625000 1.000000
vt 0.625000 0.875000
vt 0.375000 1.000000
vt 0.518849 0.771490
vt 0.518849 0.853509
vt 0.516128 0.856231
vt 0.516128 0.768769
vt 0.606231 0.858872
vt 0.518769 0.858872
vt 0.521491 0.856151
vt 0.603510 0.856151
vt 0.522584 0.770717
vt 0.602416 0.770717
vt 0.602416 0.770717
vt 0.522584 0.770717
vt 0.381666 0.756666
vt 0.381666 0.868334
vt 0.489599 0.763043
vt 0.489599 0.861957
vt 0.486877 0.859236
vt 0.486877 0.765764
vt 0.489861 0.887780
vt 0.489861 0.987220
vt 0.487139 0.984498
vt 0.487139 0.890502
vt 0.518902 0.892034
vt 0.606098 0.892034
vt 0.606098 0.892034
vt 0.518902 0.892034
vt 0.607192 0.890167
vt 0.517808 0.890167
vt 0.515086 0.887445
vt 0.609914 0.887445
vt 0.515167 0.892808
vt 0.515167 0.982192
vt 0.512445 0.984914
vt 0.512445 0.890086
vt 0.518902 0.893902
vt 0.606098 0.893902
vt 0.606098 0.981098
vt 0.518902 0.981098
vt 0.612607 0.762393
vt 0.512392 0.762393
vt 0.517034 0.981098
vt 0.517034 0.893902
vt 0.517034 0.893902
vt 0.517034 0.981098
vt 0.484498 0.887861
vt 0.390502 0.887861
vt 0.387780 0.885139
vt 0.487220 0.885139
vt 0.602416 0.854283
vt 0.522584 0.854283
vt 0.522584 0.854283
vt 0.602416 0.854283
vt 0.616290 0.991290
vt 0.616290 0.883710
vt 0.508710 0.883710
vt 0.500000 0.875000
vt 0.508710 0.883710
vt 0.508710 0.991290
vt 0.500000 1.000000
vt 0.612555 0.890086
vt 0.612555 0.984914
vt 0.609833 0.982192
vt 0.609833 0.892808
vt 0.512393 0.862607
vt 0.612607 0.862607
vt 0.608872 0.768769
vt 0.608872 0.856231
vt 0.606151 0.853510
vt 0.606151 0.771490
vt 0.493334 0.868334
vt 0.493334 0.756666
vt 0.385401 0.861957
vt 0.385402 0.763043
vt 0.388123 0.765764
vt 0.388123 0.859236
vt 0.493596 0.881404
vt 0.381404 0.881404
vt 0.493596 0.993596
vt 0.381404 0.993596
vt 0.385139 0.987220
vt 0.385139 0.887780
vt 0.387861 0.890502
vt 0.387861 0.984498
vt 0.381404 0.993596
vt 0.493596 0.993596
vt 0.604283 0.772584
vt 0.604283 0.852416
vt 0.604283 0.852416
vt 0.604283 0.772584
vt 0.485009 0.766858
vt 0.485009 0.858142
vt 0.485009 0.766858
vt 0.389728 0.983404
vt 0.389728 0.891596
vt 0.389728 0.891596
vt 0.389728 0.983404
vt 0.391596 0.889728
vt 0.483404 0.889728
vt 0.483404 0.889729
vt 0.391596 0.889728
vt 0.391858 0.764991
vt 0.483142 0.764991
vt 0.391858 0.764991
vt 0.520717 0.852416
vt 0.520717 0.772584
vt 0.607966 0.893902
vt 0.607966 0.981098
vt 0.607966 0.981098
vt 0.607966 0.893902
vt 0.522584 0.772584
vt 0.602415 0.772584
vt 0.602416 0.852416
vt 0.522584 0.852416
vt 0.389991 0.858142
vt 0.389991 0.766858
vt 0.389991 0.766858
vt 0.389991 0.858142
vt 0.606098 0.982966
vt 0.518902 0.982966
vt 0.606098 0.982966
vt 0.483142 0.860009
vt 0.391858 0.860009
vt 0.391858 0.860009
vt 0.483142 0.860009
vt 0.485272 0.891596
vt 0.485272 0.983404
vt 0.485272 0.983404
vt 0.485272 0.891596
vt 0.390502 0.987139
vt 0.484498 0.987139
vt 0.487220 0.989861
vt 0.387780 0.989861
vt 0.391858 0.766858
vt 0.483142 0.766858
vt 0.483142 0.858142
vt 0.391858 0.858142
vt 0.391596 0.891596
vt 0.483404 0.891596
vt 0.483404 0.983404
vt 0.391596 0.983404
vt 0.391596 0.985272
vt 0.483404 0.985272
vt 0.391596 0.985272
vt 0.483404 0.985272
s 0
f 10/1/1 11/2/1 2/3/1 7/4/1
f 9/5/2 6/6/2 4/7/2 8/8/2
f 8/8/3 4/7/3 17/9/3 12/10/3
f 167/11/4 91/12/4 95/13/4 170/14/4
f 5/15/5 3/16/5 13/17/5 14/18/5
f 6/19/6 2/20/6 11/21/6 15/22/6
f 4/7/6 6/19/6 15/22/6 17/9/6
f 1/23/5 5/15/5 14/18/5 16/24/5
f 165/25/4 105/26/4 108/27/4 161/28/4
f 7/4/2 2/3/2 6/6/2 9/5/2
f 1/29/2 7/4/2 9/5/2 5/30/2
f 97/31/4 130/32/4 124/33/4 100/34/4
f 118/35/4 84/36/4 88/37/4 121/38/4
f 3/16/3 8/8/3 12/10/3 13/17/3
f 5/30/2 9/5/2 8/8/2 3/16/2
f 16/39/1 10/1/1 7/4/1 1/29/1
f 25/40/6 18/40/6 11/40/6 10/40/6
f 21/40/6 22/40/6 13/40/6 12/40/6
f 22/17/6 24/41/6 14/41/6 13/17/6
f 18/42/6 19/43/6 15/43/6 11/42/6
f 24/41/6 26/44/6 16/44/6 14/41/6
f 19/43/6 20/9/6 17/9/6 15/43/6
f 26/40/6 25/40/6 10/40/6 16/40/6
f 20/40/6 21/40/6 12/40/6 17/40/6
f 129/45/4 151/46/4 146/47/4 125/48/4
f 144/49/4 147/50/4 150/51/4 140/52/4
f 127/53/1 96/54/1 53/55/1 54/56/1
f 94/57/4 103/58/4 24/41/4 22/17/4
f 172/59/4 163/60/4 160/61/4 168/62/4
f 173/63/4 154/64/4 157/65/4 179/66/4
f 134/67/1 114/68/1 72/69/1 69/70/1
f 115/71/4 133/72/4 137/73/4 111/74/4
f 132/75/4 119/76/4 123/77/4 135/78/4
f 70/79/4 74/80/4 64/81/4 67/82/4
f 101/83/4 126/84/4 21/10/4 20/9/4
f 120/85/6 131/86/6 71/87/6 66/88/6
f 178/89/4 182/90/4 186/91/4 174/92/4
f 141/93/3 149/94/3 60/95/3 58/96/3
f 87/97/4 112/98/4 19/43/4 18/42/4
f 112/98/4 136/99/4 23/100/4 19/43/4
f 136/101/4 122/102/4 25/103/4 23/100/4
f 110/104/4 86/105/4 83/106/4 116/107/4
f 122/102/4 87/97/4 18/42/4 25/103/4
f 145/108/4 143/109/4 19/43/4 23/100/4
f 126/84/4 145/108/4 23/100/4 21/10/4
f 143/109/4 101/83/4 20/9/4 19/43/4
f 102/110/4 142/111/4 139/112/4 98/113/4
f 103/58/4 164/114/4 23/100/4 24/41/4
f 164/114/4 171/115/4 21/10/4 23/100/4
f 104/116/4 93/117/4 90/118/4 109/119/4
f 171/115/4 94/57/4 22/17/4 21/10/4
f 175/120/4 185/121/4 24/41/4 23/100/4
f 152/122/4 175/120/4 23/100/4 25/103/4
f 185/121/4 80/123/4 26/44/4 24/41/4
f 81/124/4 184/125/4 181/126/4 77/127/4
f 80/128/4 152/129/4 25/103/4 26/44/4
f 99/130/5 138/131/5 57/132/5 51/133/5
f 169/134/5 159/135/5 47/135/5 43/136/5
f 78/137/6 180/138/6 33/139/6 28/140/6
f 183/141/1 177/142/1 38/143/1 34/144/1
f 92/145/1 166/146/1 42/146/1 41/147/1
f 148/148/6 128/149/6 56/149/6 61/148/6
f 113/150/5 82/151/5 65/152/5 73/153/5
f 55/154/4 52/155/4 59/156/4 62/157/4
f 106/158/6 89/159/6 40/160/6 50/161/6
f 85/162/3 117/163/3 68/163/3 63/164/3
f 162/165/3 107/166/3 49/167/3 45/168/3
f 176/169/5 156/170/5 32/171/5 36/172/5
f 76/173/4 158/174/4 153/175/4 79/176/4
f 39/177/4 44/178/4 46/179/4 48/180/4
f 35/181/4 37/182/4 31/183/4 29/184/4
f 27/185/7 28/140/7 29/184/7
f 30/186/8 31/183/8 32/171/8
f 33/139/9 34/144/9 35/181/9
f 36/172/10 37/182/10 38/143/10
f 39/177/9 40/160/9 41/147/9
f 42/146/10 43/136/10 44/178/10
f 45/168/8 46/179/8 47/135/8
f 48/180/7 49/167/7 50/161/7
f 51/133/10 52/155/10 53/55/10
f 54/56/9 55/154/9 56/149/9
f 57/132/8 58/96/8 59/156/8
f 60/95/7 61/148/7 62/157/7
f 63/164/8 64/81/8 65/152/8
f 66/88/7 67/82/7 68/163/7
f 69/70/9 70/79/9 71/87/9
f 72/69/10 73/153/10 74/80/10
f 75/187/11 76/173/11 77/127/11 78/137/11
f 79/176/4 80/123/4 81/124/4
f 82/151/12 83/106/12 84/36/12 85/162/12
f 86/105/4 87/97/4 88/37/4
f 89/159/13 90/118/13 91/12/13 92/145/13
f 93/117/4 94/57/4 95/13/4
f 96/54/14 97/31/14 98/113/14 99/130/14
f 100/34/4 101/83/4 102/110/4
f 103/58/4 104/116/4 105/26/4
f 106/158/11 107/166/11 108/27/11 109/119/11
f 110/104/4 111/74/4 112/98/4
f 113/150/14 114/68/14 115/71/14 116/107/14
f 117/163/11 118/35/11 119/76/11 120/85/11
f 121/38/4 122/102/4 123/77/4
f 124/33/4 125/48/4 126/84/4
f 127/53/13 128/149/13 129/45/13 130/32/13
f 131/86/13 132/75/13 133/72/13 134/67/13
f 135/78/4 136/99/4 137/73/4
f 138/131/12 139/112/12 140/52/12 141/93/12
f 142/111/4 143/109/4 144/49/4
f 145/108/4 146/47/4 147/50/4
f 148/148/11 149/94/11 150/51/11 151/46/11
f 152/129/4 153/175/4 154/64/4
f 155/188/12 156/170/12 157/65/12 158/174/12
f 159/135/12 160/61/12 161/28/12 162/165/12
f 163/60/4 164/114/4 165/25/4
f 166/146/14 167/11/14 168/62/14 169/134/14
f 170/14/4 171/115/4 172/59/4
f 173/63/4 174/92/4 175/120/4
f 176/169/14 177/142/14 178/89/14 179/66/14
f 180/138/13 181/126/13 182/90/13 183/141/13
f 184/125/4 185/121/4 186/91/4
f 60/95/15 149/94/15 148/148/15 61/148/15
f 29/184/16 31/183/16 30/186/16 27/185/16
f 53/55/17 96/54/17 99/130/17 51/133/17
f 141/93/18 58/96/18 57/132/18 138/131/18
f 127/53/19 54/56/19 56/149/19 128/149/19
f 39/177/20 48/180/20 50/161/20 40/160/20
f 35/181/20 29/184/20 28/140/20 33/139/20
f 92/145/19 41/147/19 40/160/19 89/159/19
f 44/178/21 39/177/21 41/147/21 42/146/21
f 31/183/22 37/182/22 36/172/22 32/171/22
f 106/158/15 50/161/15 49/167/15 107/166/15
f 68/163/15 117/163/15 120/85/15 66/88/15
f 48/180/16 46/179/16 45/168/16 49/167/16
f 46/179/22 44/178/22 43/136/22 47/135/22
f 37/182/21 35/181/21 34/144/21 38/143/21
f 134/67/19 69/70/19 71/87/19 131/86/19
f 72/69/17 114/68/17 113/150/17 73/153/17
f 55/154/20 62/157/20 61/148/20 56/149/20
f 38/143/17 177/142/17 176/169/17 36/172/17
f 155/188/18 30/186/18 32/171/18 156/170/18
f 85/162/18 63/164/18 65/152/18 82/151/18
f 62/157/16 59/156/16 58/96/16 60/95/16
f 64/81/22 74/80/22 73/153/22 65/152/22
f 47/135/18 159/135/18 162/165/18 45/168/18
f 67/82/16 64/81/16 63/164/16 68/163/16
f 52/155/21 55/154/21 54/56/21 53/55/21
f 27/185/15 75/187/15 78/137/15 28/140/15
f 42/146/17 166/146/17 169/134/17 43/136/17
f 70/79/20 67/82/20 66/88/20 71/87/20
f 74/80/21 70/79/21 69/70/21 72/69/21
f 59/156/22 52/155/22 51/133/22 57/132/22
f 33/139/19 180/138/19 183/141/19 34/144/19
f 110/104/4 116/107/4 115/71/4 111/74/4
f 114/68/21 134/67/21 133/72/21 115/71/21
f 132/75/4 135/78/4 137/73/4 133/72/4
f 136/99/4 112/98/4 111/74/4 137/73/4
f 131/86/20 120/85/20 119/76/20 132/75/20
f 118/35/4 121/38/4 123/77/4 119/76/4
f 122/102/4 136/101/4 135/78/4 123/77/4
f 117/163/16 85/162/16 84/36/16 118/35/16
f 83/106/4 86/105/4 88/37/4 84/36/4
f 87/97/4 122/102/4 121/38/4 88/37/4
f 112/98/4 87/97/4 86/105/4 110/104/4
f 82/151/22 113/150/22 116/107/22 83/106/22
f 139/112/4 142/111/4 144/49/4 140/52/4
f 143/109/4 145/108/4 147/50/4 144/49/4
f 146/47/4 151/46/4 150/51/4 147/50/4
f 149/94/16 141/93/16 140/52/16 150/51/16
f 124/33/4 130/32/4 129/45/4 125/48/4
f 128/149/20 148/148/20 151/46/20 129/45/20
f 145/108/4 126/84/4 125/48/4 146/47/4
f 97/31/4 100/34/4 102/110/4 98/113/4
f 101/83/4 143/109/4 142/111/4 102/110/4
f 138/131/22 99/130/22 98/113/22 139/112/22
f 96/54/21 127/53/21 130/32/21 97/31/21
f 126/84/4 101/83/4 100/34/4 124/33/4
f 160/61/4 163/60/4 165/25/4 161/28/4
f 164/114/4 103/58/4 105/26/4 165/25/4
f 104/116/4 109/119/4 108/27/4 105/26/4
f 107/166/16 162/165/16 161/28/16 108/27/16
f 167/11/4 170/14/4 172/59/4 168/62/4
f 171/115/4 164/114/4 163/60/4 172/59/4
f 159/135/22 169/134/22 168/62/22 160/61/22
f 166/146/21 92/145/21 91/12/21 167/11/21
f 90/118/4 93/117/4 95/13/4 91/12/4
f 94/57/4 171/115/4 170/14/4 95/13/4
f 103/58/4 94/57/4 93/117/4 104/116/4
f 89/159/20 106/158/20 109/119/20 90/118/20
f 173/63/4 179/66/4 178/89/4 174/92/4
f 177/142/21 183/141/21 182/90/21 178/89/21
f 181/126/4 184/125/4 186/91/4 182/90/4
f 185/121/4 175/120/4 174/92/4 186/91/4
f 175/120/4 152/122/4 154/64/4 173/63/4
f 153/175/4 158/174/4 157/65/4 154/64/4
f 156/170/22 176/169/22 179/66/22 157/65/22
f 76/173/4 79/176/4 81/124/4 77/127/4
f 80/123/4 185/121/4 184/125/4 81/124/4
f 180/138/20 78/137/20 77/127/20 181/126/20
f 75/187/16 155/188/16 158/174/16 76/173/16
f 152/129/4 80/128/4 79/176/4 153/175/4
f 155/188/3 75/187/3 27/185/3 30/186/3
