# Blender 4.2.2 LTS
# www.blender.org
mtllib hexagon.mtl
o Hexagon
v 0.751883 0.011419 -0.000000
v 0.375942 0.011419 -0.651150
v -0.375942 0.011419 -0.651150
v -0.751883 0.011419 0.000000
v -0.375942 0.011419 0.651150
v 0.375942 0.011419 0.651150
v 1.000000 -0.011419 0.000000
v 0.500000 -0.011419 -0.866025
v -0.500000 -0.011419 -0.866025
v -1.000000 -0.011419 0.000000
v -0.500000 -0.011419 0.866025
v 0.500000 -0.011419 0.866025
v -0.500000 0.011419 -0.866025
v 0.500000 0.011419 0.866025
v 1.000000 0.011419 0.000000
v 0.500000 0.011419 -0.866025
v -1.000000 0.011419 0.000000
v -0.500000 0.011419 -0.866025
v -0.500000 0.011419 0.866025
v 0.500000 0.011419 0.866025
v -0.003102 0.011419 0.866025
v -0.003102 -0.011419 0.866025
v -0.002332 0.011419 0.651150
v 0.248449 0.011419 0.866025
v 0.248449 -0.011419 0.866025
v 0.186805 0.011419 0.651150
v -0.251551 0.011419 0.866025
v -0.251551 -0.011419 0.866025
v -0.189137 0.011419 0.651150
v 0.750000 0.011419 0.433013
v 0.750000 -0.011419 0.433013
v 0.563912 0.011419 0.325575
v 0.625000 0.011419 0.649519
v 0.625000 -0.011419 0.649519
v 0.469927 0.011419 0.488363
v 0.875000 0.011419 0.216506
v 0.875000 -0.011419 0.216506
v 0.657898 0.011419 0.162788
v 0.750000 0.011419 -0.433013
v 0.750000 -0.011419 -0.433013
v 0.563912 0.011419 -0.325575
v 0.876293 0.011419 -0.214267
v 0.876293 -0.011419 -0.214267
v 0.658870 0.011419 -0.161104
v 0.625000 0.011419 -0.649519
v 0.625000 -0.011419 -0.649519
v 0.469927 0.011419 -0.488363
v 0.687500 0.011419 -0.541266
v 0.687500 -0.011419 -0.541266
v 0.516920 0.011419 -0.406969
v 0.813146 0.011419 -0.323640
v 0.813146 -0.011419 -0.323640
v 0.611391 0.011419 -0.243339
v 0.812500 0.011419 0.324760
v 0.812500 -0.011419 0.324760
v 0.610905 0.011419 0.244181
v 0.686789 0.011419 0.542497
v 0.686789 -0.011419 0.542497
v 0.516385 0.011419 0.407895
v 0.122674 0.011419 0.866025
v 0.122674 -0.011419 0.866025
v 0.092236 0.011419 0.651150
v -0.127326 0.011419 0.866025
v -0.127326 -0.011419 0.866025
v -0.095735 0.011419 0.651150
v -0.750000 0.011419 0.433013
v -0.750000 -0.011419 0.433013
v -0.563912 0.011419 0.325575
v -0.624351 0.011419 0.650643
v -0.624351 -0.011419 0.650643
v -0.469439 0.011419 0.489207
v -0.687176 0.011419 0.541828
v -0.687176 -0.011419 0.541828
v -0.516676 0.011419 0.407391
v -0.875000 0.011419 0.216506
v -0.875000 -0.011419 0.216506
v -0.657898 0.011419 0.162788
v -0.812500 0.011419 0.324760
v -0.812500 -0.011419 0.324760
v -0.610905 0.011419 0.244181
v -0.750000 0.011419 -0.433013
v -0.750000 -0.011419 -0.433013
v -0.563912 0.011419 -0.325575
v -0.875000 0.011419 -0.216506
v -0.875000 -0.011419 -0.216506
v -0.657898 0.011419 -0.162787
v -0.625000 0.011419 -0.649519
v -0.625000 -0.011419 -0.649519
v -0.469927 0.011419 -0.488362
v -0.687500 0.011419 -0.541266
v -0.687500 -0.011419 -0.541266
v -0.516920 0.011419 -0.406969
v -0.812500 0.011419 -0.324759
v -0.812500 -0.011419 -0.324759
v -0.610905 0.011419 -0.244181
v -0.000000 0.011419 -0.866025
v -0.000000 -0.011419 -0.866025
v -0.000000 0.011419 -0.651150
v -0.250000 0.011419 -0.866025
v -0.250000 -0.011419 -0.866025
v -0.187971 0.011419 -0.651150
v -0.125000 0.011419 -0.866025
v -0.125000 -0.011419 -0.866025
v -0.093985 0.011419 -0.651150
v 0.250000 0.011419 -0.866025
v 0.250000 -0.011419 -0.866025
v 0.187971 0.011419 -0.651150
v 0.125000 0.011419 -0.866025
v 0.125000 -0.011419 -0.866025
v 0.093985 0.011419 -0.651150
v 0.625000 0.460520 -0.649519
v 0.500000 0.460520 -0.866025
v -0.250000 0.460520 -0.866025
v -0.500000 0.460520 -0.866025
v -0.875000 0.460520 -0.216506
v -1.000000 0.460520 0.000000
v -0.624351 0.460520 0.650643
v -0.500000 0.460520 0.866025
v 0.248449 0.460520 0.866025
v 0.500000 0.460520 0.866025
v 0.875000 0.460520 0.216506
v 1.000000 0.460520 0.000000
v 0.469927 0.460520 -0.488363
v 0.375942 0.460520 -0.651150
v -0.187971 0.460520 -0.651150
v -0.375942 0.460520 -0.651150
v -0.657898 0.460520 -0.162787
v -0.751883 0.460520 0.000000
v -0.469439 0.460520 0.489207
v -0.375942 0.460520 0.651150
v 0.186805 0.460520 0.651150
v 0.375942 0.460520 0.651150
v 0.657898 0.460520 0.162788
v 0.751883 0.460520 -0.000000
v -0.251551 0.460520 0.866025
v -0.189137 0.460520 0.651150
v 0.625000 0.460520 0.649519
v 0.469927 0.460520 0.488363
v 0.876293 0.460520 -0.214267
v 0.658870 0.460520 -0.161104
v -0.875000 0.460520 0.216506
v -0.657898 0.460520 0.162788
v -0.625000 0.460520 -0.649519
v -0.469927 0.460520 -0.488362
v 0.250000 0.460520 -0.866025
v 0.187971 0.460520 -0.651150
vn 0.8660 -0.0000 -0.5000
vn -0.0000 -0.0000 -1.0000
vn -0.8660 -0.0000 -0.5000
vn -0.8660 -0.0000 0.5000
vn -0.0000 -0.0000 1.0000
vn 0.8660 -0.0000 0.5000
vn -0.0000 -1.0000 -0.0000
vn -0.0000 1.0000 -0.0000
vn -0.9612 -0.0000 0.2758
vn -0.7206 -0.0000 0.6934
vn 0.7206 -0.0000 0.6934
vn -0.9608 -0.0000 -0.2774
vn 0.7206 -0.0000 -0.6934
vn -0.2375 -0.0000 -0.9714
vn 0.9608 -0.0000 -0.2773
vn 0.2402 -0.0000 0.9707
vn 0.9603 -0.0000 0.2789
vn 0.2402 -0.0000 -0.9707
vn -0.2402 -0.0000 0.9707
vn -0.7215 -0.0000 -0.6924
vt 0.000000 0.000000
s 0
usemtl 
f 45/1/1 46/1/1 8/1/1 16/1/1
f 99/1/2 100/1/2 9/1/2 18/1/2
f 84/1/3 85/1/3 10/1/3 17/1/3
f 69/1/4 70/1/4 11/1/4 19/1/4
f 24/1/5 25/1/5 12/1/5 20/1/5
f 36/1/6 37/1/6 7/1/6 15/1/6
f 12/1/7 25/1/7 61/1/7 22/1/7 64/1/7 28/1/7 11/1/7 70/1/7 73/1/7 67/1/7 79/1/7 76/1/7 10/1/7 85/1/7 94/1/7 82/1/7 91/1/7 88/1/7 9/1/7 100/1/7 103/1/7 97/1/7 109/1/7 106/1/7 8/1/7 46/1/7 49/1/7 40/1/7 52/1/7 43/1/7 7/1/7 37/1/7 55/1/7 31/1/7 58/1/7 34/1/7
f 3/1/8 89/1/8 92/1/8 83/1/8 95/1/8 86/1/8 4/1/8 77/1/8 80/1/8 68/1/8 74/1/8 71/1/8 5/1/8 29/1/8 65/1/8 23/1/8 62/1/8 26/1/8 6/1/8 35/1/8 59/1/8 32/1/8 56/1/8 38/1/8 1/1/8 44/1/8 53/1/8 41/1/8 50/1/8 47/1/8 2/1/8 107/1/8 110/1/8 98/1/8 104/1/8 101/1/8
f 26/1/9 24/1/9 119/1/9 131/1/9
f 107/1/5 2/1/5 124/1/5 146/1/5
f 87/1/10 89/1/10 144/1/10 143/1/10
f 20/1/6 33/1/6 137/1/6 120/1/6
f 1/1/3 38/1/3 133/1/3 134/1/3
f 16/1/2 105/1/2 145/1/2 112/1/2
f 62/1/8 23/1/8 21/1/8 60/1/8
f 63/1/5 64/1/5 22/1/5 21/1/5
f 6/1/2 26/1/2 131/1/2 132/1/2
f 60/1/5 61/1/5 25/1/5 24/1/5
f 19/1/5 11/1/5 28/1/5 27/1/5
f 65/1/8 29/1/8 27/1/8 63/1/8
f 56/1/8 32/1/8 30/1/8 54/1/8
f 57/1/6 58/1/6 31/1/6 30/1/6
f 20/1/6 12/1/6 34/1/6 33/1/6
f 59/1/8 35/1/8 33/1/8 57/1/8
f 89/1/6 3/1/6 126/1/6 144/1/6
f 54/1/6 55/1/6 37/1/6 36/1/6
f 50/1/8 41/1/8 39/1/8 48/1/8
f 51/1/1 52/1/1 40/1/1 39/1/1
f 15/1/1 7/1/1 43/1/1 42/1/1
f 53/1/8 44/1/8 42/1/8 51/1/8
f 5/1/1 71/1/1 129/1/1 130/1/1
f 48/1/1 49/1/1 46/1/1 45/1/1
f 39/1/1 40/1/1 49/1/1 48/1/1
f 47/1/8 50/1/8 48/1/8 45/1/8
f 41/1/8 53/1/8 51/1/8 39/1/8
f 42/1/1 43/1/1 52/1/1 51/1/1
f 30/1/6 31/1/6 55/1/6 54/1/6
f 38/1/8 56/1/8 54/1/8 36/1/8
f 32/1/8 59/1/8 57/1/8 30/1/8
f 33/1/6 34/1/6 58/1/6 57/1/6
f 21/1/5 22/1/5 61/1/5 60/1/5
f 26/1/8 62/1/8 60/1/8 24/1/8
f 23/1/8 65/1/8 63/1/8 21/1/8
f 27/1/5 28/1/5 64/1/5 63/1/5
f 74/1/8 68/1/8 66/1/8 72/1/8
f 78/1/4 79/1/4 67/1/4 66/1/4
f 4/1/6 86/1/6 127/1/6 128/1/6
f 72/1/4 73/1/4 70/1/4 69/1/4
f 66/1/4 67/1/4 73/1/4 72/1/4
f 71/1/8 74/1/8 72/1/8 69/1/8
f 17/1/4 10/1/4 76/1/4 75/1/4
f 80/1/8 77/1/8 75/1/8 78/1/8
f 68/1/8 80/1/8 78/1/8 66/1/8
f 75/1/4 76/1/4 79/1/4 78/1/4
f 95/1/8 83/1/8 81/1/8 93/1/8
f 90/1/3 91/1/3 82/1/3 81/1/3
f 47/1/11 45/1/11 111/1/11 123/1/11
f 93/1/3 94/1/3 85/1/3 84/1/3
f 18/1/3 9/1/3 88/1/3 87/1/3
f 92/1/8 89/1/8 87/1/8 90/1/8
f 83/1/8 92/1/8 90/1/8 81/1/8
f 87/1/3 88/1/3 91/1/3 90/1/3
f 81/1/3 82/1/3 94/1/3 93/1/3
f 86/1/8 95/1/8 93/1/8 84/1/8
f 104/1/8 98/1/8 96/1/8 102/1/8
f 108/1/2 109/1/2 97/1/2 96/1/2
f 18/1/3 87/1/3 143/1/3 114/1/3
f 102/1/2 103/1/2 100/1/2 99/1/2
f 96/1/2 97/1/2 103/1/2 102/1/2
f 101/1/8 104/1/8 102/1/8 99/1/8
f 16/1/2 8/1/2 106/1/2 105/1/2
f 110/1/8 107/1/8 105/1/8 108/1/8
f 98/1/8 110/1/8 108/1/8 96/1/8
f 105/1/2 106/1/2 109/1/2 108/1/2
f 140/1/8 134/1/8 122/1/8 139/1/8
f 146/1/8 124/1/8 112/1/8 145/1/8
f 144/1/8 126/1/8 114/1/8 143/1/8
f 142/1/8 128/1/8 116/1/8 141/1/8
f 136/1/8 130/1/8 118/1/8 135/1/8
f 138/1/8 132/1/8 120/1/8 137/1/8
f 132/1/8 131/1/8 119/1/8 120/1/8
f 134/1/8 133/1/8 121/1/8 122/1/8
f 124/1/8 123/1/8 111/1/8 112/1/8
f 130/1/8 129/1/8 117/1/8 118/1/8
f 128/1/8 127/1/8 115/1/8 116/1/8
f 126/1/8 125/1/8 113/1/8 114/1/8
f 15/1/1 42/1/1 139/1/1 122/1/1
f 45/1/1 16/1/1 112/1/1 111/1/1
f 35/1/3 6/1/3 132/1/3 138/1/3
f 99/1/2 18/1/2 114/1/2 113/1/2
f 17/1/4 75/1/4 141/1/4 116/1/4
f 105/1/12 107/1/12 146/1/12 145/1/12
f 19/1/5 27/1/5 135/1/5 118/1/5
f 44/1/4 1/1/4 134/1/4 140/1/4
f 84/1/3 17/1/3 116/1/3 115/1/3
f 33/1/13 35/1/13 138/1/13 137/1/13
f 69/1/4 19/1/4 118/1/4 117/1/4
f 77/1/1 4/1/1 128/1/1 142/1/1
f 29/1/2 5/1/2 130/1/2 136/1/2
f 42/1/14 44/1/14 140/1/14 139/1/14
f 24/1/5 20/1/5 120/1/5 119/1/5
f 101/1/15 99/1/15 113/1/15 125/1/15
f 36/1/6 15/1/6 122/1/6 121/1/6
f 75/1/16 77/1/16 142/1/16 141/1/16
f 27/1/17 29/1/17 136/1/17 135/1/17
f 86/1/18 84/1/18 115/1/18 127/1/18
f 38/1/19 36/1/19 121/1/19 133/1/19
f 2/1/4 47/1/4 123/1/4 124/1/4
f 3/1/5 101/1/5 125/1/5 126/1/5
f 71/1/20 69/1/20 117/1/20 129/1/20
l 20 14
l 13 18
